# xmcd
#
# Track frame offsets:
#	150
#	16949
#	33484
#	56517
#	81296
#	102541
#	119439
#	144779
#	162231
#	178629
#	197238
#	230916
#	250564
#	269865
#
# Disc length: 3894 seconds
# Revision: 0
# Processed by: cddbd v1.5.2PL0 Copyright (c) Steve Scherf et al.
# Submitted via: dBpowerAMP V12.0
#
DISCID=c50f340e
DTITLE=Al Basile - At Home Next Door, Disc 1
DYEAR=2012
DGENRE=Blues
TTITLE0=Go Back Home To the Blues
TTITLE1=I Got To Love and Be Loved
TTITLE2=Picked To Click
TTITLE3=Termites In My Basement
TTITLE4=Daddy Got a Problem
TTITLE5=Just a Heartache
TTITLE6=I Really Miss You
TTITLE7=Not the Wrong Woman
TTITLE8=Bad Intentions
TTITLE9=Annie Get Your Thing On
TTITLE10=Too Slow
TTITLE11=Housekey Blues
TTITLE12=Give It Like You Get It
TTITLE13=80 Bells
EXTD=
EXTT0=
EXTT1=
EXTT2=
EXTT3=
EXTT4=
EXTT5=
EXTT6=
EXTT7=
EXTT8=
EXTT9=
EXTT10=
EXTT11=
EXTT12=
EXTT13=
PLAYORDER=
